<svg id="Capa_1" enable-background="new 0 0 512 512" height="512" viewBox="0 0 512 512" width="512" xmlns="http://www.w3.org/2000/svg"><g><path d="m503.87 0v258.298l-131.7 145.851h-372.17v-404.149z" fill="#186a81"/><path d="m503.87 0v258.298l-131.7 145.851h-120.24v-404.149z" fill="#00465f"/><path d="m444.47 104.657v114.97l-70.27 122.751h-269.81v-15.02c0-15.881-12.9-27.867-29.99-27.867h-15v-194.834h15c17.09 0 29.99-11.976 29.99-27.867v-15.02h295.09v15.02c0 15.891 12.89 27.867 29.99 27.867z" fill="#eaf4f4"/><path d="m444.47 104.657v114.97l-70.27 122.751h-122.27v-280.607h147.55v15.02c0 15.891 12.89 27.867 29.99 27.867h15z" fill="#cae8ea"/><g fill="#cae8ea"><path d="m186.52 161.882h130.83v30.039h-130.83z"/><path d="m219.39 221.96h65.08v30.039h-65.08z"/></g><g fill="#a7d2db"><path d="m251.93 221.96h32.54v30.039h-32.54z"/><path d="m251.93 161.882h65.42v30.039h-65.42z"/></g><path d="m487.88 342.338v169.662l-61.18-27.366-61.19 27.366v-169.662z" fill="#ff668e"/><path d="m487.88 342.338v169.662l-61.18-27.366v-142.296z" fill="#e04496"/><path d="m512 284.853c0 46.461-38.27 84.25-85.3 84.25-47.04 0-85.31-37.789-85.31-84.25 0-46.451 38.27-84.24 85.31-84.24 47.03 0 85.3 37.789 85.3 84.24z" fill="#ffe26f"/><path d="m512 284.853c0 46.461-38.27 84.25-85.3 84.25v-168.49c47.03 0 85.3 37.789 85.3 84.24z" fill="#ffc271"/><path d="m411.7 269.833h30v30.039h-30z" fill="#ffc271"/><path d="m426.7 269.833h15v30.039h-15z" fill="#ff9e73"/></g></svg>