<svg width="411" height="500" viewBox="0 0 411 500" fill="none" xmlns="http://www.w3.org/2000/svg">
<g clip-path="url(#clip0)">
<path opacity="0.4" d="M245.87 412.19L158.06 361.63C157.558 361.338 157.143 360.916 156.859 360.409C156.575 359.902 156.432 359.328 156.445 358.747C156.458 358.166 156.627 357.599 156.934 357.105C157.241 356.611 157.675 356.209 158.19 355.94L169.24 350.25C169.722 350.002 170.257 349.879 170.799 349.891C171.34 349.904 171.87 350.051 172.34 350.32L263.1 402.58C263.605 402.87 264.023 403.291 264.309 403.799C264.595 404.306 264.739 404.881 264.726 405.464C264.712 406.046 264.542 406.614 264.233 407.108C263.924 407.602 263.488 408.003 262.97 408.27L254.97 412.4C253.557 413.131 251.983 413.495 250.393 413.459C248.803 413.422 247.247 412.986 245.87 412.19V412.19Z" fill="#D6D8E5"/>
<path d="M251.25 402.67L176.43 359.47C170.09 355.81 165 346 165 337.55V128.83C165 120.38 170.14 116.5 176.48 120.16L251.3 163.36C257.64 167.02 262.78 176.83 262.78 185.28V394C262.73 402.45 257.59 406.33 251.25 402.67Z" fill="#B1B4C4"/>
<path d="M252.54 406.44L258.47 403.44L252.78 393.69L252.54 406.44Z" fill="#B1B4C4"/>
<path d="M163.79 122.24L169.25 119.38L168.15 127.42L163.79 122.24Z" fill="#B1B4C4"/>
<path d="M246.48 405.06L171.66 361.86C165.32 358.2 160.18 348.38 160.18 339.93V131.22C160.18 122.77 165.32 118.88 171.66 122.54L246.48 165.74C252.82 169.4 257.96 179.22 257.96 187.67V396.38C258 404.83 252.82 408.72 246.48 405.06Z" fill="#616E84"/>
<path d="M257.16 188.2V396.91C257.16 405.37 252.03 409.25 245.69 405.59L216.34 388.65L207.22 383.38L170.86 362.38C164.52 358.72 159.39 348.91 159.39 340.45V131.75C159.39 123.29 164.52 119.42 170.86 123.07L245.69 166.27C252 169.93 257.16 179.74 257.16 188.2Z" fill="#20232D"/>
<path d="M251.77 186.08V389.36C251.77 394.48 248.18 396.56 243.77 393.99L220.38 380.49L218.31 379.3L217.62 378.89L212.54 376L197.9 367.57L191.83 364.07L189.39 362.66L172.81 353.09C168.38 350.53 164.81 344.3 164.81 339.17V135.86C164.81 130.74 168.4 128.66 172.81 131.22L202 148.09V148.17C202.12 150.341 202.751 152.453 203.84 154.335C204.929 156.216 206.447 157.815 208.27 159C211.73 161 214.53 159.37 214.53 155.39C214.53 155.39 214.53 155.33 214.53 155.3L243.75 172.17C248.18 174.73 251.77 181 251.77 186.08Z" fill="white"/>
<path d="M210.784 157.526C211.716 156.99 211.722 155.251 210.796 153.641C209.871 152.032 208.366 151.161 207.434 151.697C206.502 152.233 206.496 153.972 207.421 155.581C208.346 157.191 209.852 158.062 210.784 157.526Z" fill="#2B303F"/>
<path opacity="0.1" d="M208.28 155.14C207.99 154.951 207.749 154.698 207.576 154.399C207.402 154.1 207.301 153.765 207.28 153.42C207.28 152.78 207.73 152.53 208.28 152.84C208.571 153.029 208.814 153.284 208.988 153.585C209.162 153.886 209.262 154.223 209.28 154.57C209.27 155.2 208.83 155.46 208.28 155.14Z" fill="white"/>
<path d="M260.2 215.66C259.59 216.02 259.09 215.66 259.09 214.83V205.93C259.097 205.516 259.201 205.109 259.393 204.743C259.586 204.376 259.863 204.06 260.2 203.82V203.82C260.81 203.46 261.3 203.82 261.3 204.65V213.55C261.295 213.963 261.194 214.37 261.002 214.737C260.811 215.103 260.536 215.42 260.2 215.66V215.66Z" fill="#757B89"/>
<path d="M260.2 230.24C259.59 230.6 259.09 230.24 259.09 229.41V220.51C259.097 220.096 259.201 219.689 259.393 219.323C259.586 218.956 259.863 218.64 260.2 218.4V218.4C260.81 218.04 261.3 218.4 261.3 219.23V228.13C261.295 228.543 261.194 228.95 261.002 229.317C260.811 229.683 260.536 230 260.2 230.24V230.24Z" fill="#757B89"/>
<path d="M237.67 207.53L176.9 172.44C175.959 171.768 175.188 170.883 174.652 169.858C174.115 168.834 173.827 167.697 173.81 166.54V149.8C173.81 147.53 175.19 146.48 176.9 147.47L237.67 182.55C238.61 183.226 239.379 184.113 239.915 185.139C240.452 186.165 240.741 187.302 240.76 188.46V205.19C240.76 207.47 239.37 208.51 237.67 207.53Z" fill="#E9EAF2"/>
<path d="M173.81 164.71V180.17L182.39 175.61L173.81 164.71Z" fill="#E9EAF2"/>
<path d="M232 190.58L186.17 164.12V159.36L232 185.82V190.58Z" fill="#D9DAE2"/>
<path d="M208.83 184.34L186.17 171.25V166.5L208.83 179.58V184.34Z" fill="#D9DAE2"/>
<path d="M221.19 283.34L176.9 257.77C175.959 257.098 175.188 256.213 174.652 255.188C174.115 254.164 173.827 253.027 173.81 251.87V243.16C173.81 240.89 175.19 239.84 176.9 240.83L221.19 266.4C222.13 267.074 222.899 267.959 223.435 268.983C223.972 270.008 224.261 271.144 224.28 272.3V281C224.28 283.28 222.89 284.33 221.19 283.34Z" fill="#E9EAF2"/>
<path d="M173.81 249.75V265.21L182.39 260.65L173.81 249.75Z" fill="#E9EAF2"/>
<path d="M217.68 275.67L183.13 255.72V250.96L217.68 270.91V275.67Z" fill="#D9DAE2"/>
<path d="M198.4 231.43L237.67 254.1C239.37 255.1 240.76 254.04 240.76 251.77V235C240.742 233.843 240.453 232.707 239.916 231.683C239.38 230.658 238.61 229.774 237.67 229.1L198.4 206.45C196.69 205.45 195.31 206.52 195.31 208.79V225.53C195.328 226.686 195.617 227.823 196.154 228.847C196.69 229.872 197.46 230.756 198.4 231.43Z" fill="#E9EAF2"/>
<path d="M240.76 249.94V265.4L232.17 250.93L240.76 249.94Z" fill="#E9EAF2"/>
<path d="M203.42 220.65L229.36 235.63V230.87L203.42 215.9V220.65Z" fill="#D9DAE2"/>
<path d="M203.42 227.79L217.32 235.82V231.06L203.42 223.03V227.79Z" fill="#D9DAE2"/>
<path d="M176.9 307.62L237.31 342.5C239.02 343.5 240.4 342.44 240.4 340.16V323.43C240.383 322.272 240.095 321.134 239.559 320.107C239.022 319.081 238.252 318.195 237.31 317.52L176.9 282.64C175.19 281.64 173.81 282.7 173.81 284.98V301.72C173.828 302.877 174.117 304.013 174.654 305.037C175.19 306.062 175.96 306.946 176.9 307.62V307.62Z" fill="#E9EAF2"/>
<path d="M240.4 338.34V353.8L231.82 339.33L240.4 338.34Z" fill="#E9EAF2"/>
<path d="M183.08 297.51L225.82 322.19V317.43L183.08 292.75V297.51Z" fill="#D9DAE2"/>
<path d="M183.08 304.65L222.9 327.64V322.88L183.08 299.89V304.65Z" fill="#D9DAE2"/>
<path d="M237.67 379L176.9 343.9C175.851 343.214 174.977 342.291 174.35 341.205C173.723 340.12 173.36 338.902 173.29 337.65V329.33C173.29 327.03 174.91 326.1 176.9 327.25L237.67 362.33C238.718 363.017 239.589 363.941 240.214 365.026C240.84 366.112 241.201 367.329 241.27 368.58V376.9C241.27 379.2 239.65 380.13 237.67 379ZM176.9 328.44C175.48 327.62 174.32 328.28 174.32 329.92V338.25C174.37 339.144 174.629 340.013 175.077 340.788C175.526 341.563 176.15 342.221 176.9 342.71L237.67 377.79C239.09 378.61 240.24 377.95 240.24 376.31V368C240.192 367.107 239.935 366.238 239.488 365.463C239.042 364.688 238.419 364.029 237.67 363.54L176.9 328.44Z" fill="#E9EAF2"/>
<path d="M179.3 341.12L178.27 340.53V332.6L179.3 333.19V341.12Z" fill="#E9EAF2"/>
<path opacity="0.4" d="M361.95 311.11C381.081 311.11 396.59 302.156 396.59 291.11C396.59 280.064 381.081 271.11 361.95 271.11C342.819 271.11 327.31 280.064 327.31 291.11C327.31 302.156 342.819 311.11 361.95 311.11Z" fill="#D6D8E5"/>
<path d="M381 286C378.59 288 375 286.17 374.86 286.35C372.033 288.976 369.065 291.446 365.97 293.75C364.47 294.93 362.13 296.51 362.55 298.75C363.31 302.81 369.81 301.56 372.26 300.32C374.71 299.08 376.71 297.02 379.03 295.58C380.69 294.58 382.32 294.02 382.58 291.93C382.75 290.69 381.45 285.94 381 286Z" fill="#38226D"/>
<path d="M382.56 291.11C382.25 293.11 380.64 293.66 379 294.68C376.64 296.14 374.56 298.26 372.11 299.5C369.85 300.64 364.2 301.78 362.61 298.88C363.47 302.8 369.85 301.57 372.28 300.34C374.71 299.11 376.73 297.04 379.05 295.6C380.71 294.6 382.34 294.04 382.6 291.95C382.614 291.669 382.6 291.388 382.56 291.11V291.11Z" fill="#9C73FF"/>
<path d="M360.12 278.22C357.71 280.22 353.49 278.04 353.32 278.22C350.807 280.758 348.153 283.152 345.37 285.39C343.87 286.57 341.53 288.15 341.96 290.39C342.71 294.45 349.21 293.2 351.66 291.96C354.11 290.72 356.12 288.66 358.44 287.22C360.09 286.22 361.72 285.66 361.98 283.57C362.13 282.33 360.55 278.17 360.12 278.22Z" fill="#38226D"/>
<path d="M361.9 283C361.59 285 359.98 285.55 358.34 286.57C355.98 288.04 353.9 290.15 351.45 291.39C349.19 292.54 343.54 293.68 341.95 290.78C342.81 294.69 349.2 293.46 351.62 292.23C354.04 291 356.07 288.94 358.4 287.49C360.05 286.49 361.68 285.93 361.94 283.84C361.954 283.559 361.94 283.278 361.9 283V283Z" fill="#9C73FF"/>
<path d="M381.1 197C380.99 200.65 379.85 216.47 379.35 224.84C378.85 233.21 378.72 243.48 378.72 243.48C378.72 243.48 380.17 249.58 381.1 256.75C382.03 263.92 381.1 286.55 381.1 286.55C380.181 287.143 379.11 287.459 378.015 287.459C376.921 287.459 375.85 287.143 374.93 286.55C374.93 286.55 371.08 268.44 369.29 260.28C367.5 252.12 367.2 247.42 366.29 242.36C365.17 236.24 362.75 207.68 362.75 207.68L361.75 207.74L359.19 240C359.985 242.377 360.531 244.83 360.82 247.32C361.52 252.57 360.08 278.99 360.08 278.99C359.05 279.562 357.883 279.838 356.706 279.789C355.529 279.739 354.389 279.366 353.41 278.71C353.41 278.71 346.97 243.71 346.97 238.4C346.97 234.88 347.57 188.4 347.57 188.4L381.1 197Z" fill="#2B2AB5"/>
<path d="M372.37 126.63C372.37 126.63 371.96 134.57 372.14 135.28C372.32 135.99 375.78 138.28 376.79 139.14C377.8 140 371.3 146.39 368.14 147.84C364.98 149.29 354.96 145.47 354.79 140.55C354.62 135.63 356.5 131.5 358.04 131.28C359.58 131.06 372.37 126.63 372.37 126.63Z" fill="#FFCEA9"/>
<path d="M353.21 133.72C353.21 133.72 351.06 130.43 343.21 148.72C335.36 167.01 330.52 171.81 327 176.36C323.82 180.5 322.25 173.92 322.25 173.92C322.25 173.92 324.78 170.73 322.67 170.73C321.49 170.8 319.84 173.23 319.84 173.23L322.53 177.53L329.53 181.08C329.53 181.08 338.1 173.2 340.87 168.34C343.87 164.51 348.36 156.91 348.36 156.91L353.21 133.72Z" fill="#FFCEA9"/>
<path d="M319.87 176.94C319.79 176.88 317.7 174.45 317.7 174.45C317.7 174.45 316.45 173.36 317.81 173.28C319.17 173.2 324.02 173.19 324.02 173.19C324.516 173.142 325.012 173.281 325.41 173.58C326.02 174.06 333.05 182.96 333.05 182.96C333.05 182.96 333.36 183.5 332.45 183.56C331.54 183.62 325.65 183.56 325.65 183.56L319.87 176.94Z" fill="#20232D"/>
<path d="M319.3 175.44C319.3 175.44 317.23 175.05 317.71 177.04C318.19 179.03 321.16 181.09 321.16 181.09L324.26 183.69C324.639 183.933 325.08 184.063 325.53 184.063C325.98 184.063 326.421 183.933 326.8 183.69C327.6 183.19 328.72 181.83 327.49 180.54C326.26 179.25 325.16 176.42 322.02 176.54C322.02 176.54 321.85 175.79 320.02 175.54" fill="#FFCEA9"/>
<path d="M373.26 136.65C373.26 136.65 367.49 145.23 359.45 146.04C356.92 143.54 356.69 134.65 360.2 131.81C360.2 131.81 356.97 129.2 354.76 129.71C352.145 131.123 350.143 133.452 349.14 136.25C347.66 140.78 346.83 146 346.96 154.43C347.09 162.86 346.96 188.6 346.96 188.6C346.96 188.6 348.1 194.05 355.37 198.1C362.64 202.15 368 202.54 373 201.39C377.07 200.44 380.43 199.01 381.83 196.06C381.47 190.15 378.83 174.74 379.83 167.31C380.83 159.88 382.38 154.31 382.83 148.31C383.28 142.31 382.03 142.42 379.02 140.31C377.192 138.951 375.267 137.728 373.26 136.65V136.65Z" fill="#F4F4F4"/>
<path d="M376.48 200.49C377.68 199.15 379.74 191.72 380.92 187.03C382.059 181.765 382.289 176.343 381.6 171C380.54 164.6 377.6 155.74 376.77 152.07C375.94 148.4 377.04 146.84 378.67 145.36C380.58 143.62 383.43 144.14 385.27 149.24C387.671 156.294 389.284 163.591 390.08 171C390.511 176.518 390.028 182.069 388.65 187.43C387.42 192.43 385.65 196.05 383.31 200.63C382.68 201.87 381.24 205.36 380.31 207.88C379.38 210.4 375.39 201.71 376.48 200.49Z" fill="#FFCEA9"/>
<path d="M354.39 114.79C355.34 108.62 359.78 103.95 366.14 104.3C368.698 104.434 371.148 105.368 373.147 106.97C375.145 108.571 376.59 110.76 377.278 113.227C377.967 115.693 377.863 118.314 376.983 120.719C376.102 123.123 374.489 125.191 372.37 126.63C372.142 127.562 371.806 128.465 371.37 129.32C369.12 131.95 362.32 133.58 360.37 133.32C357.86 132.96 356.51 131.91 355.31 129.17C353.21 124.31 353.87 117.84 354.39 114.79Z" fill="#FFCEA9"/>
<path d="M372.37 126.63L371.79 121.25C371.79 121.25 376.18 109.87 365.79 112.05C358.93 113.5 357.21 114.12 355.13 109.52C353.05 104.92 360.4 100.79 369.13 101.94C372.149 102.241 374.943 103.668 376.957 105.936C378.971 108.204 380.058 111.147 380 114.18C379.72 117.57 378.82 124.42 372.37 126.63Z" fill="#3A2C6D"/>
<path d="M390.14 157.5C390.14 157.5 384.48 163.14 377.77 161.5C376.77 160.85 374.51 147.67 374.51 147.67C374.51 147.67 374.51 140.37 380.11 140.56C385.71 140.75 390.14 157.5 390.14 157.5Z" fill="#EDEDED"/>
<path d="M347 150.1C347 150.1 343.33 150.56 342.11 148.84C342.33 145.84 347.22 130.54 354.81 129.71C352.962 131.381 351.365 133.311 350.07 135.44C347.36 139.93 347 150.1 347 150.1Z" fill="#EDEDED"/>
<path opacity="0.4" d="M34.58 500C53.678 500 69.16 491.064 69.16 480.04C69.16 469.016 53.678 460.08 34.58 460.08C15.482 460.08 0 469.016 0 480.04C0 491.064 15.482 500 34.58 500Z" fill="#D6D8E5"/>
<path d="M9.2199 330.53C8.8299 333.89 4.8299 348.38 5.6899 353.35C6.5499 358.32 20.2399 366.62 20.2399 366.62L22.1399 358.12L14.5499 350.69L16.5999 336.61L9.2199 330.53Z" fill="#FFCEA9"/>
<path d="M19.8099 316.24C18.477 315.627 16.9656 315.523 15.5615 315.949C14.1574 316.374 12.9579 317.3 12.1899 318.55C10.1899 321.89 8.07989 333.33 7.88989 335.29C7.88989 335.29 10.7199 339.19 14.9599 338.54L19.8099 316.24Z" fill="#EDEDED"/>
<path d="M35.4501 477.85C38.4292 478.674 41.6128 478.289 44.3101 476.78C46.4501 476.85 58.0401 471.89 59.6101 476.05C60.9901 479.7 55.9701 483.05 53.2901 483.73C47.4401 485.14 43.1101 488.06 40.7601 488.56C39.0101 488.93 36.7601 489.17 35.3401 487.79C33.6701 486.14 33.8101 480 35.4501 477.85Z" fill="#2B2A30"/>
<path d="M40.7601 487.55C43.1101 487.05 47.4401 484.13 53.2901 482.72C55.5401 482.17 59.4101 479.72 59.8001 476.78C60.3201 480.14 55.8001 483.12 53.2901 483.78C47.4401 485.19 43.1101 488.11 40.7601 488.61C39.0101 488.98 36.7601 489.22 35.3401 487.84C34.9789 487.444 34.7183 486.968 34.5801 486.45C35.4535 487.102 36.467 487.541 37.5399 487.732C38.6128 487.923 39.7154 487.86 40.7601 487.55V487.55Z" fill="#BF4B4B"/>
<path d="M16.6599 469.41C19.639 470.234 22.8226 469.849 25.5199 468.34C27.6499 468.41 39.2399 463.45 40.8199 467.61C42.1999 471.26 37.1799 474.61 34.4999 475.29C28.6499 476.71 24.3099 479.62 21.9599 480.12C20.2099 480.49 17.9599 480.73 16.5499 479.35C14.8699 477.7 14.9999 471.59 16.6599 469.41Z" fill="#2B2A30"/>
<path d="M22.0001 479.11C24.3501 478.61 28.6901 475.69 34.5401 474.28C36.7801 473.73 40.6601 471.28 41.0501 468.34C41.5701 471.7 37.0501 474.68 34.5401 475.34C28.6901 476.76 24.3501 479.67 22.0001 480.17C20.2501 480.54 18.0001 480.78 16.5901 479.4C16.2293 479.002 15.9658 478.527 15.8201 478.01C16.6935 478.662 17.707 479.101 18.7799 479.292C19.8528 479.483 20.9554 479.42 22.0001 479.11V479.11Z" fill="#BF4B4B"/>
<path d="M16.4301 437.93C16.9255 433.626 17.8193 429.378 19.1001 425.24C19.1001 425.24 18.3101 414.29 17.9101 403.9C17.4501 392.12 13.3601 381.75 16.5901 372.34L53.0001 380.43C53.0001 380.43 50.8001 427.43 50.3101 433.1C50.0436 437.526 49.4992 441.932 48.6801 446.29C47.0201 455.41 44.3201 477.1 44.3201 477.1C40.4801 479.34 35.4301 478.1 35.4301 478.1C35.4301 478.1 35.7101 450.66 35.9601 444.1C36.2601 436.1 36.5001 436.69 36.5001 436.69L35.3001 416.69L34.5201 406.75C34.5201 406.75 33.5201 414.05 32.8601 420.57C32.2801 426.25 30.8601 431.39 29.3801 441.97C28.0501 451.15 25.8901 469.59 25.8901 469.59C22.0501 471.82 16.8301 469.97 16.8301 469.97C16.8301 469.97 15.3901 445.89 16.4301 437.93Z" fill="#E26161"/>
<path d="M21.7399 316.44C24.5099 316.58 26.5699 317.29 26.9099 316.44C27.21 315.011 27.4237 313.565 27.5499 312.11C27.2299 311.3 26.9499 310.44 26.9499 310.44C23.4799 308.3 22.3799 304.54 21.9499 300.17C21.1699 292.69 25.2099 286.17 32.6899 285.36C39.6899 284.62 44.8999 289.57 46.2799 296.36C47.0199 299.71 48.4999 306.04 46.4999 311.55C45.3799 314.63 43.9399 317.08 42.4999 317.55C41.1073 317.506 39.7184 317.382 38.3399 317.18V317.18C38.3399 317.18 37.9699 319.25 37.7099 320.59C37.4499 321.93 37.5599 322.59 40.2099 324.26C42.8599 325.93 36.2099 329.26 31.8399 328.93C27.4699 328.6 22.5799 325.93 21.2299 323.15C19.7099 320.05 19.8399 316.35 21.7399 316.44Z" fill="#FFCEA9"/>
<path d="M25.74 316.85C24.98 318.77 26.93 321.11 32.13 322.74C37.33 324.37 37.8 322.27 37.8 322.27C37.8 322.27 45.42 325.75 47.9 327.48C51.03 329.66 52.41 335.98 52.83 346.64C53.32 358.97 53.36 377.27 52.95 380.43C52.95 380.43 47.12 386.24 39.65 385.63C32.18 385.02 19.65 378.41 16.58 373.31C16.66 362.49 17.93 360.73 16.18 354.5C12.18 340.24 10.06 334.4 12 324.92C13.61 317.11 15.86 316.14 19 316.21C21.2562 316.307 23.5059 316.52 25.74 316.85V316.85Z" fill="#F4F4F4"/>
<path d="M64.5601 356.84C58.4401 358.38 57.0001 354.52 56.1901 351.32C54.2501 343.57 53.1901 336.58 51.7401 332.18C50.0301 327 48.2401 326.18 45.7401 325.18C42.7401 324 40.2401 326.5 41.2201 333.1C42.3901 340.9 43.9201 346.38 46.8301 355.62C47.6001 358.03 49.3101 362.31 51.8301 364.38C54.9901 366.94 59.7501 366.83 66.9501 365.04C70.0201 364.27 73.3901 362.44 79.2001 359.73C80.7801 359 82.0001 358.5 85.0001 357.1C88.0066 355.749 90.6416 353.69 92.6801 351.1C94.2501 348.83 93.9701 347.38 93.6801 346.87C93.3901 346.36 93.0501 346.74 92.2101 347.69C91.0008 349.307 89.5063 350.69 87.8001 351.77C87.8001 351.77 89.7401 349.77 90.8001 348.47C91.7378 347.319 92.518 346.047 93.1201 344.69C93.6701 343.36 92.5301 341.56 91.6601 342.51C90.7901 343.46 90.3801 344.41 88.8001 346.31C87.9458 347.317 86.9758 348.22 85.9101 349C86.8922 347.669 87.7651 346.261 88.5201 344.79C89.5201 342.74 86.1701 343.79 84.2501 345.79C82.8501 347.24 81.6601 348.08 81.6201 347.68C81.5801 347.28 78.8601 350.21 77.4701 351.68C76.0801 353.15 70.3901 355.37 64.5601 356.84Z" fill="#FFCEA9"/>
<path d="M43.4499 324.11C47.5399 323.5 50.4499 325.34 52.2399 331.54C54.0299 337.74 55.3099 342.83 55.3099 342.83C53.6919 345.166 51.2408 346.794 48.4599 347.38C43.5599 348.56 41.7999 346.23 41.7999 346.23C41.7999 346.23 40.4399 339.73 39.5999 335.31C38.7599 330.89 38.3899 324.85 43.4499 324.11Z" fill="#EDEDED"/>
<path d="M46 295.4C46 295.4 52.46 285.57 38.46 283.57C28.36 282.13 21.87 288.62 21.12 295.66C20.4 302.39 24.54 309.37 27.54 312.15C29 312.67 32.14 312.97 36.27 311.09C36.4346 309.258 36.498 307.419 36.46 305.58C36.46 305.58 31.54 295.22 46 295.4Z" fill="#2B2A30"/>
<path d="M78.8199 349.11C78.8199 349.11 77.2299 346.22 78.2399 345.5C79.2499 344.78 80.6899 347.5 80.9799 348.55C81.2699 349.6 80.8699 348.23 80.8699 348.23C80.8699 348.23 79.7799 344.96 80.4899 344.33C81.1999 343.7 82.1499 345.1 83.0999 347.15C84.0499 349.2 83.3299 346.98 83.3299 346.98C83.3299 346.98 81.7599 343.7 82.4299 343.24C83.3299 342.64 84.8099 344.58 85.6899 346.33C86.5699 348.08 84.5099 350.16 84.5099 350.16L78.8199 349.11Z" fill="#FFCEA9"/>
<path d="M81.89 354.28L76 350.85C75.49 350.56 75.56 350.06 76.14 349.72L90.48 341.44C90.783 341.269 91.1225 341.172 91.4703 341.158C91.8182 341.144 92.1643 341.213 92.48 341.36L98.42 344.79C98.92 345.08 98.86 345.59 98.28 345.92L83.85 354.2C83.5528 354.367 83.2203 354.461 82.8796 354.475C82.539 354.489 82.1998 354.422 81.89 354.28V354.28Z" fill="#B1B4C4"/>
<path d="M75.6101 350.36V349.81L76.2501 350.05L75.6101 350.36Z" fill="#B1B4C4"/>
<path d="M98.6702 345.26V344.74L98.1602 345.06L98.6702 345.26Z" fill="#B1B4C4"/>
<path d="M81.89 353.82L76 350.39C75.49 350.1 75.56 349.59 76.14 349.26L90.43 341C90.7322 340.826 91.0719 340.728 91.4202 340.714C91.7684 340.7 92.1149 340.771 92.43 340.92L98.37 344.35C98.87 344.64 98.81 345.14 98.23 345.48L83.89 353.76C83.5854 353.928 83.2451 354.021 82.8973 354.032C82.5495 354.042 82.2042 353.97 81.89 353.82V353.82Z" fill="#616E84"/>
<path d="M76.9653 352.5C76.9941 352.484 76.9928 352.428 76.9626 352.375C76.9323 352.322 76.8845 352.293 76.8557 352.309C76.827 352.326 76.8282 352.382 76.8585 352.435C76.8888 352.487 76.9366 352.517 76.9653 352.5Z" fill="#757B89"/>
<path d="M76.9425 351.259C76.9712 351.242 76.9698 351.186 76.9395 351.133C76.9091 351.081 76.8612 351.052 76.8325 351.068C76.8038 351.085 76.8051 351.141 76.8355 351.193C76.8659 351.246 76.9138 351.275 76.9425 351.259Z" fill="#757B89"/>
<path d="M77.2298 351.436C77.2585 351.419 77.2572 351.363 77.2268 351.311C77.1964 351.258 77.1485 351.229 77.1198 351.245C77.0911 351.262 77.0925 351.318 77.1229 351.371C77.1532 351.423 77.2011 351.453 77.2298 351.436Z" fill="#757B89"/>
<path d="M77.5211 351.59C77.5498 351.573 77.5484 351.517 77.518 351.464C77.4877 351.412 77.4398 351.382 77.4111 351.399C77.3824 351.416 77.3837 351.472 77.4141 351.524C77.4445 351.577 77.4924 351.606 77.5211 351.59Z" fill="#757B89"/>
<path d="M79.9728 353.014C80.0014 352.998 80.0001 352.942 79.9697 352.889C79.9393 352.836 79.8914 352.807 79.8628 352.824C79.8341 352.84 79.8354 352.896 79.8658 352.949C79.8962 353.002 79.9441 353.031 79.9728 353.014Z" fill="#757B89"/>
<path d="M80.2591 353.177C80.2878 353.16 80.2865 353.104 80.2561 353.051C80.2257 352.999 80.1778 352.969 80.1491 352.986C80.1204 353.003 80.1218 353.059 80.1522 353.111C80.1825 353.164 80.2304 353.193 80.2591 353.177Z" fill="#757B89"/>
<path d="M80.5416 353.345C80.5703 353.328 80.5689 353.272 80.5386 353.22C80.5082 353.167 80.4603 353.138 80.4316 353.155C80.4029 353.171 80.4043 353.227 80.4346 353.28C80.465 353.332 80.5129 353.362 80.5416 353.345Z" fill="#757B89"/>
<path d="M80.8277 353.507C80.8564 353.491 80.8551 353.435 80.8247 353.382C80.7943 353.329 80.7464 353.3 80.7177 353.317C80.689 353.333 80.6904 353.389 80.7208 353.442C80.7512 353.495 80.799 353.524 80.8277 353.507Z" fill="#757B89"/>
<path d="M79.0902 352.55L78.3002 352.1C78.2725 352.079 78.2501 352.052 78.2345 352.02C78.2189 351.989 78.2106 351.955 78.2102 351.92C78.2102 351.86 78.2102 351.83 78.3002 351.86L79.0902 352.31C79.1177 352.329 79.1402 352.355 79.1558 352.384C79.1715 352.414 79.1798 352.447 79.1802 352.48C79.1802 352.55 79.1402 352.58 79.0902 352.55Z" fill="#757B89"/>
<path d="M96.8701 346.56L96.1401 346.98C96.1401 346.98 96.0601 346.98 96.0601 346.92C96.062 346.889 96.0701 346.859 96.0839 346.832C96.0976 346.804 96.1167 346.78 96.1401 346.76L96.8701 346.34C96.8701 346.34 96.9601 346.34 96.9601 346.4C96.9598 346.432 96.9514 346.464 96.9357 346.492C96.9199 346.52 96.8974 346.543 96.8701 346.56V346.56Z" fill="#757B89"/>
<path d="M95.75 347.21L95.02 347.63C95.02 347.63 94.94 347.63 94.94 347.57C94.9392 347.539 94.946 347.508 94.96 347.48C94.9739 347.452 94.9946 347.428 95.02 347.41L95.75 346.99C95.75 346.99 95.84 346.99 95.84 347.05C95.8389 347.082 95.8301 347.113 95.8145 347.141C95.7988 347.169 95.7767 347.192 95.75 347.21Z" fill="#757B89"/>
<path d="M81.89 353.74L76 350.31C75.49 350.02 75.56 349.51 76.14 349.17L90.48 340.89C90.783 340.719 91.1225 340.622 91.4703 340.608C91.8182 340.594 92.1643 340.663 92.48 340.81L98.42 344.24C98.92 344.53 98.86 345.04 98.28 345.37L83.94 353.65C83.6323 353.833 83.284 353.937 82.9263 353.953C82.5686 353.968 82.2126 353.895 81.89 353.74V353.74Z" fill="#20232D"/>
<path d="M97.6901 344.38L95.3801 343C95.2257 343.081 95.0542 343.123 94.8801 343.123C94.706 343.123 94.5344 343.081 94.3801 343C94.1001 342.84 94.1001 342.59 94.3801 342.43L92.0701 341.09C91.8712 340.991 91.6521 340.94 91.4301 340.94C91.208 340.94 90.989 340.991 90.7901 341.09L76.7901 349.15C76.4401 349.36 76.4401 349.69 76.7901 349.89L82.4201 353.14C82.6172 353.239 82.8347 353.29 83.0551 353.29C83.2755 353.29 83.4929 353.239 83.6901 353.14L97.6901 345.07C98.0501 344.91 98.0501 344.58 97.6901 344.38Z" fill="#2B303F"/>
<path opacity="0.5" d="M97.6901 344.38L95.3801 343C95.2257 343.081 95.0542 343.123 94.8801 343.123C94.706 343.123 94.5344 343.081 94.3801 343C94.1001 342.84 94.1001 342.59 94.3801 342.43L92.0701 341.09C91.8712 340.991 91.6521 340.94 91.4301 340.94C91.208 340.94 90.989 340.991 90.7901 341.09L76.7901 349.15C76.4401 349.36 76.4401 349.69 76.7901 349.89L82.4201 353.14C82.6172 353.239 82.8347 353.29 83.0551 353.29C83.2755 353.29 83.4929 353.239 83.6901 353.14L97.6901 345.07C98.0501 344.91 98.0501 344.58 97.6901 344.38Z" fill="url(#paint0_linear)"/>
<path d="M94.7202 342.99C94.8693 342.99 94.9902 342.923 94.9902 342.84C94.9902 342.757 94.8693 342.69 94.7202 342.69C94.5711 342.69 94.4502 342.757 94.4502 342.84C94.4502 342.923 94.5711 342.99 94.7202 342.99Z" fill="#2B303F"/>
<path opacity="0.1" d="M94.6401 342.89C94.6401 342.89 94.6401 342.82 94.6401 342.8C94.6641 342.785 94.6918 342.777 94.7201 342.777C94.7485 342.777 94.7762 342.785 94.8001 342.8C94.8001 342.8 94.8001 342.86 94.8001 342.89C94.7487 342.91 94.6916 342.91 94.6401 342.89Z" fill="white"/>
<path d="M91.12 352.91C91.12 352.91 94.26 350.08 94.12 346.33C93.93 343.72 92.35 345.6 92.35 345.6L90.76 348.48C89.9716 349.544 88.9439 350.407 87.76 351C86.6458 351.107 85.5377 351.271 84.44 351.49C82.49 351.87 80.55 354.31 80.55 354.31L83 356.24L91.12 352.91Z" fill="#FFCEA9"/>
<path d="M76.55 220.38L18.74 187C18.1846 186.617 17.55 186.364 16.8835 186.261C16.2169 186.157 15.5356 186.204 14.89 186.4C14.6432 186.502 14.4112 186.637 14.2 186.8L7.75 190.49L12.75 196.36V220.46C12.8623 222.544 13.464 224.573 14.5064 226.382C15.5488 228.19 17.0026 229.728 18.75 230.87L36.75 242.18L41.64 253.39L36.49 262.12L43.66 258.02L50.47 250.11L72.2 261.88L73.37 268.88L80.69 264.7L80.89 264.58H80.96C81.5187 264.129 81.9572 263.547 82.2363 262.886C82.5155 262.225 82.6267 261.505 82.56 260.79V230.79C82.4466 228.705 81.8434 226.675 80.7992 224.867C79.755 223.058 78.2993 221.521 76.55 220.38V220.38Z" fill="#FF7B7B"/>
<path d="M69.3901 224.48L11.5801 191.11C8.26008 189.19 5.58008 190.74 5.58008 194.57V224.57C5.69235 226.654 6.29406 228.683 7.33648 230.492C8.37889 232.3 9.83269 233.838 11.5801 234.98L29.5801 246.3L36.4901 262.13L43.3001 254.22L69.3801 268.36C72.7001 270.27 75.3801 268.72 75.3801 264.89V234.89C75.2689 232.806 74.6687 230.778 73.6281 228.97C72.5875 227.161 71.1356 225.623 69.3901 224.48V224.48Z" fill="#E26D6D"/>
<path d="M404.05 34.26L346.12 0.82C345.564 0.434015 344.928 0.178662 344.26 0.0730308C343.591 -0.0326002 342.908 0.0142231 342.26 0.21V0.21C342.011 0.307761 341.778 0.442621 341.57 0.61L335.11 4.31L340.11 10.18V34.34C340.221 36.4274 340.823 38.4592 341.865 40.2711C342.907 42.083 344.362 43.6242 346.11 44.77L364.16 56.11L369.06 67.34L363.91 76.09L371.1 72L377.92 64.07L399.68 75.87L400.86 82.87L408.19 78.67L408.39 78.56H408.46C409.022 78.1116 409.463 77.5303 409.744 76.8686C410.025 76.207 410.137 75.4857 410.07 74.77V44.77C409.968 42.6671 409.37 40.6181 408.324 38.7912C407.277 36.9643 405.813 35.4114 404.05 34.26V34.26Z" fill="#2B2AB5"/>
<path opacity="0.2" d="M404.05 34.26L346.12 0.82C345.564 0.434015 344.928 0.178662 344.26 0.0730308C343.591 -0.0326002 342.908 0.0142231 342.26 0.21V0.21C342.011 0.307761 341.778 0.442621 341.57 0.61L335.11 4.31L340.11 10.18V34.34C340.221 36.4274 340.823 38.4592 341.865 40.2711C342.907 42.083 344.362 43.6242 346.11 44.77L364.16 56.11L369.06 67.34L363.91 76.09L371.1 72L377.92 64.07L399.68 75.87L400.86 82.87L408.19 78.67L408.39 78.56H408.46C409.022 78.1116 409.463 77.5303 409.744 76.8686C410.025 76.207 410.137 75.4857 410.07 74.77V44.77C409.968 42.6671 409.37 40.6181 408.324 38.7912C407.277 36.9643 405.813 35.4114 404.05 34.26V34.26Z" fill="black"/>
<path d="M396.86 38.37L338.94 4.93C335.62 3.01 332.94 4.57 332.94 8.41V38.41C333.051 40.4974 333.653 42.5292 334.695 44.3411C335.737 46.1531 337.192 47.6942 338.94 48.84L357 60.22L363.93 76.09L370.75 68.16L396.87 82.32C400.2 84.24 402.87 82.69 402.87 78.85V48.85C402.766 46.7529 402.167 44.7102 401.122 42.8888C400.078 41.0674 398.617 39.519 396.86 38.37V38.37Z" fill="#2B2AB5"/>
<path d="M351.995 37.0158C353.616 36.0796 353.617 33.0448 351.996 30.2372C350.375 27.4296 347.746 25.9125 346.125 26.8486C344.503 27.7847 344.503 30.8196 346.124 33.6272C347.745 36.4348 350.373 37.9519 351.995 37.0158Z" fill="white"/>
<path d="M370.62 47.1314C372.249 46.1953 372.255 43.15 370.634 40.3295C369.013 37.509 366.379 35.9815 364.75 36.9176C363.121 37.8537 363.115 40.899 364.736 43.7195C366.357 46.54 368.991 48.0675 370.62 47.1314Z" fill="white"/>
<path d="M386.353 56.8627C387.974 55.9266 387.974 52.8917 386.354 50.0841C384.733 47.2766 382.104 45.7594 380.483 46.6956C378.861 47.6317 378.861 50.6666 380.482 53.4741C382.103 56.2817 384.731 57.7988 386.353 56.8627Z" fill="white"/>
<path d="M304.48 96.86C304.48 89.86 299.55 81.29 293.48 77.78C290.24 75.91 287.34 75.86 285.33 77.26L281.67 79.33L283.23 79.95C282.694 81.2806 282.432 82.7058 282.46 84.14C282.46 91.14 287.39 99.7 293.46 103.22C294.396 103.776 295.406 104.196 296.46 104.47V106.66L301.18 104C303.26 102.81 304.48 100.35 304.48 96.86Z" fill="#DD990E"/>
<path d="M297.215 106.334C301.515 103.852 301.513 95.7986 297.211 88.3468C292.908 80.895 285.935 76.8666 281.635 79.3491C277.335 81.8316 277.337 89.885 281.64 97.3368C285.942 104.789 292.915 108.817 297.215 106.334Z" fill="#F9CB07"/>
<path d="M286.186 89.3952C286.799 89.0417 286.798 87.8944 286.185 86.8326C285.572 85.7708 284.579 85.1965 283.966 85.55C283.354 85.9035 283.355 87.0508 283.968 88.1126C284.581 89.1744 285.574 89.7486 286.186 89.3952Z" fill="#CC8B09"/>
<path d="M294.727 94.3147C295.34 93.9612 295.339 92.8139 294.726 91.7521C294.113 90.6903 293.12 90.1161 292.507 90.4695C291.895 90.823 291.896 91.9703 292.509 93.0321C293.122 94.0939 294.115 94.6681 294.727 94.3147Z" fill="#CC8B09"/>
<path d="M285.08 94.26C285.08 94.26 286.52 98.2 289.42 99.87C292.32 101.54 294.02 99.42 294.02 99.42L285.08 94.26Z" fill="#CC8B09"/>
<path d="M99.9199 306.32L106.14 309.92V293.89L99.9199 290.3V306.32Z" fill="#4399FF"/>
<path d="M106.14 293.91L99.9199 290.31L104.96 287.4L111.43 291.02L106.14 293.91Z" fill="#70B6FC"/>
<path d="M129.76 305.34C129.734 304.584 129.519 303.847 129.135 303.195C128.75 302.544 128.209 301.999 127.56 301.61L120.27 297.4L121.43 291.93V291.52C121.434 290.938 121.353 290.359 121.19 289.8C120.97 289.08 120.19 287.37 119.69 287.72L112.06 292.13C111.6 292.26 111.37 292.79 111.37 293.59V307C111.417 307.801 111.65 308.579 112.052 309.274C112.453 309.968 113.01 310.559 113.68 311L124.09 317C125.01 317.53 125.82 317.33 126.17 316.6L129.64 309.12C129.744 308.842 129.785 308.545 129.76 308.25V305.34Z" fill="#FFCEA9"/>
<path d="M122.1 319.2L125.77 317.05L122.43 312.52L122.1 319.2Z" fill="#FFCEA9"/>
<path d="M126.26 307.38C126.231 306.625 126.015 305.888 125.631 305.237C125.247 304.586 124.707 304.041 124.06 303.65L116.77 299.45L117.93 293.97V293.57C117.934 292.985 117.853 292.402 117.69 291.84C117.47 291.12 116.69 289.42 116.19 289.76L108.56 294.17C108.1 294.3 107.87 294.84 107.87 295.64V309C107.916 309.801 108.148 310.58 108.549 311.275C108.951 311.969 109.509 312.56 110.18 313L120.59 319C121.51 319.54 122.32 319.34 122.67 318.6L126.14 311.12C126.244 310.842 126.285 310.545 126.26 310.25V307.38Z" fill="#EFBD9C"/>
</g>
<defs>
<linearGradient id="paint0_linear" x1="71.3096" y1="360.263" x2="78.9172" y2="347.025" gradientUnits="userSpaceOnUse">
<stop offset="0.21" stop-color="white" stop-opacity="0"/>
<stop offset="1" stop-color="white" stop-opacity="0.2"/>
</linearGradient>
<clipPath id="clip0">
<rect width="410.07" height="500" fill="white"/>
</clipPath>
</defs>
</svg>
