<svg id="Capa_1" enable-background="new 0 0 512 512" height="512" viewBox="0 0 512 512" width="512" xmlns="http://www.w3.org/2000/svg"><g><path d="m348.935 29.996h-185.88l-66.8 104.078v377.926h319.49v-377.926zm-92.41 149.893c-24.81 0-45-20.178-45-44.995 0-19.548 12.54-36.236 30-42.415 4.69-1.67 9.74-22.577 15-22.577s10.31 20.908 15 22.577c17.46 6.179 30 22.867 30 42.415 0 24.817-20.19 44.995-45 44.995z" fill="#eaf4f4"/><path d="m415.745 134.074v377.926h-159.22v-332.111c24.81 0 45-20.178 45-44.995 0-24.807-20.19-44.995-45-44.995v-59.903h92.41z" fill="#cae8ea"/><path d="m311.335 383.245c0 23.007-17.09 42.435-40.34 48.394v18.458h-30v-18.458c-23.24-5.959-40.33-25.387-40.33-48.394h30c0 11.189 11.36 20.288 25.33 20.288.18 0 .36 0 .53-.01 13.73-.22 24.81-9.229 24.81-20.278s-11.08-20.058-24.81-20.278c-.17-.01-.35-.01-.53-.01-30.51 0-55.33-22.557-55.33-50.294 0-22.997 17.09-42.435 40.33-48.394v-18.458h30v18.458c23.25 5.959 40.34 25.397 40.34 48.394h-30c0-11.039-11.08-20.058-24.81-20.278-.17-.01-.35-.01-.53-.01-13.97 0-25.33 9.109-25.33 20.288 0 11.189 11.36 20.298 25.33 20.298.18 0 .35 0 .53.01 30.27.25 54.81 22.707 54.81 50.274z" fill="#00dc7b"/><path d="m311.335 383.245c0 23.007-17.09 42.435-40.34 48.394v18.458h-14.47v-46.575c13.73-.22 24.81-9.229 24.81-20.278s-11.08-20.058-24.81-20.278v-29.996c30.27.251 54.81 22.708 54.81 50.275z" fill="#00aa8e"/><path d="m256.525 292.386v-46.574h14.47v18.458c23.25 5.959 40.34 25.397 40.34 48.394h-30c0-11.039-11.08-20.058-24.81-20.278z" fill="#00aa8e"/><path d="m271.525 0v92.479c-4.69-1.67-9.74-2.58-15-2.58s-10.31.91-15 2.58v-92.479z" fill="#cae8ea"/><path d="m271.525 0v92.479c-4.69-1.67-9.74-2.58-15-2.58v-89.899z" fill="#b3d6e0"/></g></svg>