<svg id="Capa_1" enable-background="new 0 0 512 512" height="512" viewBox="0 0 512 512" width="512" xmlns="http://www.w3.org/2000/svg"><g><g><path d="m204.709 327.94-53.681 53.67-10.45-10.45-10.76-10.76 53.68-53.68 10.71 10.71z" fill="#cae8ea"/><path d="m204.709 327.94-53.681 53.67-10.45-10.45 53.63-53.73z" fill="#b3d6e0"/><path d="m185.108 394.58-102.98 103.28c-9.09 9.12-21.18 14.14-34.04 14.14-12.83 0-24.9-5-33.99-14.09l-.05-.05c-18.73-18.79-18.73-49.37 0-68.16l103.041-103.35 34.09 34.2z" fill="#186a81"/><g><path d="m319.57 385.91c-53.404 0-101.794-21.927-136.685-57.283-34.438-34.874-55.745-82.837-55.745-135.672 0-106.391 86.329-192.955 192.43-192.955 52.902.007 100.875 21.517 135.688 56.271 35.032 34.96 56.742 83.326 56.742 136.684 0 106.391-86.322 192.948-192.43 192.955z" fill="#eaf4f4"/><path d="m319.57 385.91c-53.404 0-101.794-21.927-136.685-57.283l272.373-272.356c35.032 34.96 56.742 83.326 56.742 136.684 0 106.391-86.322 192.948-192.43 192.955z" fill="#cae8ea"/></g><path d="m185.108 394.58-102.98 103.28c-9.09 9.12-21.18 14.14-34.04 14.14-12.83 0-24.9-5-33.99-14.09l137.081-137.36z" fill="#00465f"/></g><g><path d="m388.809 248.3v49.23h-138.47v-49.23c0-38.18 31.05-69.24 69.23-69.24 4.05 0 8.02.35 11.88 1.02 32.54 5.65 57.36 34.09 57.36 68.22z" fill="#ff668e"/><path d="m388.809 248.3v49.23h-138.47v-36.35l81.11-81.1c32.54 5.65 57.36 34.09 57.36 68.22z" fill="#e04496"/><path d="m380.459 153.72c0 33.27-27.32 60.34-60.89 60.34-6.66 0-13.07-1.06-19.07-3.04-24.26-7.94-41.81-30.63-41.81-57.3 0-33.27 27.31-60.34 60.88-60.34 26.72 0 49.48 17.15 57.65 40.93 2.1 6.09 3.24 12.62 3.24 19.41z" fill="#ffe8c8"/><path d="m380.459 153.72c0 33.27-27.32 60.34-60.89 60.34-6.66 0-13.07-1.06-19.07-3.04l76.72-76.71c2.1 6.09 3.24 12.62 3.24 19.41z" fill="#ffc7a1"/></g></g></svg>