<svg id="Capa_1" enable-background="new 0 0 512 512" height="512" viewBox="0 0 512 512" width="512" xmlns="http://www.w3.org/2000/svg"><g><g><path d="m470.97 42.968v294.112c0 63.103-37.62 113.476-108.8 145.652-51.61 23.343-102.46 28.878-104.6 29.108l-1.57.16-1.57-.16c-2.14-.23-52.99-5.766-104.6-29.108-71.18-32.176-108.8-82.549-108.8-145.652v-294.112l214.97-42.968 1.5.3z" fill="#eaf4f4"/><path d="m470.97 42.968v294.112c0 63.103-37.62 113.476-108.8 145.652-51.61 23.343-102.46 28.878-104.6 29.108l-1.57.16v-511.7h1.5z" fill="#cae8ea"/></g><g><path d="m337.76 296.52v92.4h-163.52v-92.4c0-45.09 36.68-81.76 81.76-81.76s81.76 36.67 81.76 81.76z" fill="#00dc7b"/><path d="m337.76 296.52v92.4h-81.76v-174.16c45.08 0 81.76 36.67 81.76 81.76z" fill="#00aa8e"/><path d="m324.01 177.38c0 37.15-30.51 67.38-68.01 67.38-37.51 0-68.02-30.23-68.02-67.38s30.51-67.38 68.02-67.38c37.5 0 68.01 30.23 68.01 67.38z" fill="#ffe8c8"/><path d="m241 286.84h30v30h-30z" fill="#00aa8e"/><path d="m256 286.84h15v30h-15z" fill="#00767a"/><path d="m324.01 177.38c0 37.15-30.51 67.38-68.01 67.38v-134.76c37.5 0 68.01 30.23 68.01 67.38z" fill="#ffc7a1"/></g></g></svg>